<svg width="32" height="20" viewBox="0 0 32 20" fill="none" xmlns="http://www.w3.org/2000/svg">
<g filter="url(#filter0_d_60_5116)">
<path d="M4 0H28V12H4V0Z" fill="#FFBE29"/>
<path d="M5.11984 1.12018H11.3598V10.8802H5.11984V1.12018Z" fill="#EB7400"/>
<path d="M5.11984 1.12018H8.23984V10.8802H5.11984V1.12018Z" fill="#00534E"/>
<path d="M12.4799 1.11949H26.8799V10.8795H12.4799V1.11949Z" fill="#8D153A"/>
<path d="M14.045 8.98415C14.045 8.98415 13.9126 9.26048 13.7663 9.37307C13.5496 9.53989 13.1052 9.52783 12.9166 9.72245C12.6906 9.95195 12.9341 10.2552 12.9321 10.2815L12.9197 10.4416C12.9197 10.4416 13.0721 10.4435 13.1363 10.4537C13.2327 10.4692 13.2704 10.5496 13.45 10.5377C13.9016 10.5076 13.8834 10.0905 13.909 9.73409C13.9316 9.59837 13.9841 9.4214 14.0139 9.28572C14.0395 9.16937 14.045 8.98415 14.045 8.98415L14.045 8.98415Z" fill="#FFBE29" stroke="black" stroke-width="0.03144"/>
<path d="M17.4201 9.65012L17.5111 9.59887L17.55 9.65022C17.6018 9.71863 17.7453 9.71785 17.8405 9.64864L17.9133 9.59573L17.9743 9.64864C18.0544 9.71822 18.2041 9.71831 18.2997 9.64889C18.3666 9.60026 18.3759 9.59928 18.4202 9.63628C18.4465 9.65833 18.5239 9.68344 18.5921 9.69208C18.7148 9.70763 18.7167 9.70677 18.7885 9.60162C18.8487 9.51356 18.8581 9.47792 18.8438 9.39251C18.8342 9.33588 18.824 9.24475 18.821 9.18998C18.8155 9.09083 18.8161 9.09021 18.9641 9.03992C19.0459 9.01214 19.1405 8.97489 19.1744 8.95713C19.2336 8.92618 19.3966 8.73926 19.3966 8.70242C19.3966 8.69266 19.3329 8.67771 19.2551 8.66919C18.9455 8.63531 18.8931 8.47311 19.0943 8.17185C19.4225 7.68052 19.6206 7.20204 19.6219 6.89724C19.6225 6.76099 19.6304 6.71525 19.6484 6.74488C19.7217 6.86596 19.5903 7.37364 19.3913 7.73821L19.3112 7.88501L19.3877 7.86784C19.4297 7.85839 19.6769 7.75661 19.9371 7.64166C20.6491 7.32702 20.8937 7.26536 21.3544 7.2843C21.7405 7.30016 21.9049 7.37375 22.1775 7.65267C22.3218 7.80044 22.4609 7.90618 22.7154 8.06157C23.2575 8.39266 23.2801 8.42134 23.3059 8.81071C23.332 9.20521 23.319 9.22661 23.0132 9.29253C22.7518 9.34887 22.588 9.46777 22.544 9.63295C22.5205 9.72116 22.5699 9.7237 22.7017 9.64106L22.7983 9.5805L22.8412 9.64106C22.8977 9.72068 23.0177 9.721 23.1174 9.64179L23.1926 9.58196L23.2696 9.64179C23.3891 9.73475 23.5481 9.7122 23.593 9.59593C23.6016 9.57358 23.6247 9.58074 23.6713 9.62027C23.7586 9.69434 23.9825 9.72611 24.0067 9.66787C24.0159 9.64565 23.9984 9.59077 23.9678 9.54592C23.8375 9.35532 23.7967 9.26443 23.795 9.16068C23.7927 9.01638 23.8368 8.94676 24.005 8.82941C24.2094 8.68685 24.2725 8.50292 24.1171 8.50292C24.0212 8.50292 23.9244 8.42017 23.8627 8.28531C23.7374 8.0112 23.7619 7.70389 23.9501 7.19267C24.1413 6.6734 24.1625 6.57765 24.1632 6.23037C24.1639 5.94957 24.1566 5.90101 24.0911 5.74706C24.0511 5.65293 23.9699 5.51278 23.9106 5.43562L23.8029 5.29531L23.9412 5.18351C24.3635 4.84216 24.2771 4.28348 23.7687 4.06822C23.6132 4.00237 23.5744 3.99655 23.3018 3.99834C23.1383 3.99942 22.889 4.02041 22.7478 4.045C22.6038 4.07007 22.3601 4.09021 22.1929 4.09087C21.9274 4.09191 21.8823 4.08552 21.7799 4.03237C21.6732 3.97695 21.6549 3.95063 21.634 3.82252C21.6297 3.79619 21.6109 3.76992 21.5921 3.76415C21.5558 3.75298 21.3882 3.89493 21.3634 3.95781C21.3512 3.98883 21.3412 3.98669 21.3054 3.94532C21.2816 3.91785 21.2483 3.85473 21.2315 3.80505C21.1892 3.68011 21.2411 3.58645 21.3916 3.51627L21.5084 3.46182L21.4396 3.42013C21.2975 3.3341 21.0559 3.39295 20.9685 3.53488C20.9438 3.57502 20.9168 3.60794 20.9086 3.60803C20.9003 3.60809 20.8533 3.56982 20.8042 3.52292C20.6207 3.34801 20.6838 3.08924 20.9292 3.01023C21.06 2.9681 21.1758 3.00024 21.1999 3.08537C21.2367 3.21534 21.351 3.0445 21.3305 2.8902C21.3169 2.78763 21.319 2.78407 21.3917 2.78407C21.4929 2.78407 21.7082 2.91362 21.7748 3.01457C21.8522 3.1318 21.8465 3.31641 21.7614 3.45401L21.6946 3.56205L21.782 3.54496C21.9102 3.51991 22.0348 3.44222 22.0978 3.34801C22.1644 3.2484 22.1716 3.05445 22.1125 2.9498C22.0553 2.84837 22.0618 2.83227 22.1465 2.86654C22.2904 2.92484 22.3673 2.98913 22.4251 3.09932C22.4771 3.19855 22.48 3.2232 22.4518 3.32649C22.4345 3.39021 22.3958 3.47405 22.366 3.51279C22.3195 3.57312 22.3179 3.58323 22.3549 3.58323C22.4239 3.58323 22.5679 3.51953 22.6191 3.4664C22.645 3.43956 22.6826 3.37346 22.7028 3.31952L22.7396 3.22145L22.7818 3.29621C22.8415 3.40192 22.9576 3.49705 23.0991 3.55625C23.2513 3.61991 23.3147 3.6235 23.2351 3.56394C23.1815 3.52378 23.0826 3.24061 23.1125 3.21292C23.1302 3.19662 23.3368 3.35177 23.5728 3.55845C23.796 3.75395 23.9363 3.818 24.1413 3.818C24.4032 3.818 24.5556 3.59557 24.4379 3.38525C24.3693 3.26263 24.2164 3.2456 24.127 3.35061C24.0859 3.3989 24.0746 3.43732 24.0867 3.48797C24.1014 3.55001 24.0957 3.55828 24.0377 3.55828C23.9616 3.55828 23.8116 3.46326 23.5451 3.24629C23.1387 2.91542 22.6449 2.63498 22.2884 2.53255C22.0595 2.46681 21.5708 2.44115 21.3381 2.48267C21.0864 2.52762 20.7886 2.66818 20.6264 2.81865C20.339 3.08529 20.3344 3.44011 20.6143 3.76322L20.6945 3.85577L20.6402 3.93803C20.5612 4.0577 20.568 4.21874 20.657 4.33736C20.6961 4.3896 20.7357 4.43233 20.7448 4.4323C20.7539 4.43228 20.7639 4.39868 20.767 4.35766C20.7749 4.25387 20.8205 4.18434 20.8989 4.15681C20.9695 4.13201 21.0151 4.14372 21.3382 4.26957C21.6782 4.40197 22.2373 4.41107 22.8318 4.29388C23.1232 4.23644 23.4669 4.23981 23.6181 4.30161C23.8952 4.4149 23.9594 4.70962 23.7557 4.93333C23.6675 5.03018 23.5825 5.06962 23.2969 5.14609C23.0796 5.20428 23.0281 5.20814 22.5342 5.20333C22.1123 5.19922 21.9606 5.20713 21.7884 5.24222C21.6014 5.28031 21.4864 5.28415 20.9371 5.27065L20.3019 5.25503L20.3724 5.31193C20.4111 5.34323 20.4658 5.38173 20.494 5.3975C20.5419 5.42433 20.5403 5.42793 20.4691 5.45369C20.4272 5.46883 20.3344 5.48121 20.2627 5.48121H20.1324L20.1149 5.58925C20.1052 5.64868 20.106 5.71806 20.1165 5.74343C20.132 5.78085 20.1262 5.78622 20.0858 5.77189C20.0584 5.76217 19.9821 5.74306 19.9162 5.72942C19.8503 5.71578 19.7617 5.688 19.7192 5.66769C19.6477 5.63353 19.6397 5.63445 19.6134 5.67991C19.5899 5.7205 19.3692 5.88078 19.3368 5.88078C19.3316 5.88078 19.3248 5.84988 19.3218 5.8121C19.3188 5.77433 19.2869 5.676 19.251 5.59358C19.2151 5.51117 19.1776 5.42127 19.1677 5.3938C19.1528 5.35236 19.146 5.35023 19.128 5.38131C19.116 5.40192 19.0985 5.4581 19.0892 5.50618C19.0798 5.55425 19.0465 5.63235 19.0152 5.67972L18.9584 5.76586L18.9221 5.69221C18.8832 5.61314 18.8186 5.53115 18.7952 5.53115C18.7873 5.53115 18.7738 5.55643 18.7653 5.58734C18.7475 5.65187 18.5942 5.83082 18.5568 5.83082C18.543 5.83082 18.5317 5.78025 18.5317 5.71845C18.5317 5.65664 18.5196 5.60607 18.5047 5.60607C18.4898 5.60607 18.4777 5.62206 18.4777 5.64161C18.4777 5.68913 18.3468 5.83082 18.3029 5.83082C18.2838 5.83082 18.253 5.84768 18.2345 5.86828C18.1862 5.922 18.1467 5.91446 18.167 5.85541C18.1765 5.82772 18.1703 5.7631 18.1533 5.71181C18.1362 5.66052 18.1181 5.60593 18.1129 5.5905C18.1065 5.57107 18.0596 5.57622 17.9603 5.60727C17.7999 5.65744 17.7462 5.64857 17.8287 5.58553C17.8588 5.56249 17.9047 5.48267 17.9306 5.40815C17.9565 5.33363 17.9947 5.26752 18.0155 5.26122C18.0447 5.25241 18.0431 5.2633 18.0088 5.30861C17.9843 5.34097 17.9641 5.38461 17.964 5.40559C17.964 5.42657 17.9455 5.47632 17.923 5.51613C17.9005 5.55595 17.8864 5.59246 17.8916 5.59727C17.8968 5.60208 17.9578 5.57946 18.0272 5.547L18.1534 5.48799L18.1539 5.54078C18.1542 5.56982 18.1694 5.64642 18.1877 5.71101L18.2209 5.82844L18.3068 5.78993C18.3946 5.75057 18.4777 5.61028 18.4777 5.5015C18.4777 5.44773 18.5092 5.45598 18.5222 5.51313C18.526 5.5299 18.5458 5.59285 18.5662 5.65301L18.6033 5.7624L18.6621 5.69334C18.6945 5.65535 18.735 5.58084 18.7522 5.52776C18.7821 5.43561 18.829 5.396 18.829 5.46291C18.829 5.51113 18.9639 5.68408 18.9899 5.66922C19.0025 5.66203 19.0275 5.59713 19.0455 5.52497C19.083 5.37492 19.1435 5.27287 19.182 5.29483C19.1964 5.30308 19.2021 5.3191 19.1945 5.33043C19.1869 5.34175 19.218 5.4393 19.2635 5.54722C19.3091 5.65512 19.3548 5.76376 19.3651 5.78865C19.3818 5.82862 19.3968 5.82282 19.4944 5.7387C19.5552 5.68635 19.6103 5.62774 19.617 5.60847C19.627 5.57933 19.6406 5.5804 19.6974 5.61479C19.7768 5.6629 20.0439 5.7404 20.0646 5.72134C20.0723 5.7142 20.0802 5.64575 20.0822 5.56923L20.0857 5.43011L20.1625 5.44565C20.2048 5.4542 20.2936 5.45368 20.3599 5.44448L20.4805 5.42777L20.3731 5.35583C20.3139 5.31627 20.2542 5.26507 20.2402 5.24205C20.2254 5.21754 20.1728 5.19672 20.1132 5.19178C19.9522 5.17843 19.6668 5.02226 19.6668 4.94749C19.6668 4.93346 19.7063 4.95732 19.7546 5.00053C19.8618 5.09637 20.0107 5.15653 20.1407 5.15653H20.238L20.1778 5.07842C20.1433 5.03355 20.1123 4.94844 20.105 4.87841C20.0934 4.7668 20.0813 4.74905 19.9618 4.66804C19.8901 4.61937 19.8012 4.54643 19.7644 4.50594L19.6973 4.43232L19.6631 4.51973C19.6443 4.5678 19.6213 4.60713 19.612 4.60713C19.6028 4.60713 19.5666 4.57903 19.5317 4.5447C19.4968 4.51036 19.4612 4.48239 19.4526 4.48255C19.4441 4.48269 19.4132 4.52896 19.3839 4.58533L19.3308 4.68783L19.2897 4.62875C19.2671 4.59626 19.2137 4.53877 19.1711 4.50099C19.1284 4.46322 19.106 4.43232 19.1212 4.43232C19.1365 4.43232 19.1891 4.47167 19.2382 4.51976L19.3274 4.6072L19.3638 4.54314C19.3853 4.50512 19.3934 4.44672 19.3836 4.39951C19.3694 4.33068 19.3714 4.32668 19.3984 4.36989C19.4156 4.39736 19.4679 4.45002 19.5145 4.48692L19.5992 4.55401L19.6577 4.44946C19.716 4.34542 19.7164 4.34521 19.7429 4.40735C19.7783 4.49044 20.0346 4.69547 20.2529 4.81527C20.2865 4.83373 20.2723 4.77024 20.2102 4.62424C20.1938 4.58557 20.1803 4.51587 20.1803 4.46933C20.1803 4.4003 20.1599 4.36958 20.0694 4.30239C19.9388 4.2054 19.8965 4.13642 19.8719 3.97994C19.8619 3.91655 19.8391 3.84605 19.8211 3.82327C19.7944 3.78947 19.79 3.80839 19.7972 3.92603C19.802 4.00533 19.7914 4.10393 19.7737 4.14512L19.7414 4.22004L19.7165 4.15761C19.7028 4.12327 19.6422 4.06356 19.5818 4.02491C19.5215 3.98626 19.4791 3.94815 19.4877 3.94022C19.4962 3.93229 19.5584 3.96751 19.6257 4.01849C19.7283 4.09616 19.7509 4.10457 19.7651 4.07036C19.7818 4.03016 19.765 3.85528 19.7328 3.73308C19.7167 3.67205 19.7181 3.67238 19.7953 3.74765C19.8522 3.80316 19.8836 3.86938 19.908 3.98489C19.939 4.13164 19.9546 4.15607 20.0937 4.27523C20.1772 4.34678 20.2499 4.40131 20.2552 4.3964C20.2605 4.39149 20.2711 4.20639 20.2786 3.98507C20.2931 3.56068 20.2767 3.45969 20.172 3.32857L20.1182 3.2612L20.2028 3.17215C20.3131 3.05599 20.3638 2.96288 20.3858 2.83585L20.4037 2.73251L20.3082 2.82074C20.23 2.89299 20.1927 2.90897 20.1021 2.90897C20.0125 2.90897 19.9774 2.89431 19.917 2.83149C19.8445 2.75611 19.716 2.68358 19.5925 2.64828C19.5468 2.63524 19.5317 2.64092 19.5317 2.67104C19.5317 2.69312 19.5065 2.75684 19.4756 2.81265L19.4196 2.91411L19.3023 2.80092C19.2303 2.73149 19.1448 2.67744 19.0813 2.66114C18.9189 2.61947 18.9101 2.62361 18.9101 2.74165C18.9101 2.92071 18.8317 2.95406 18.6907 2.83506C18.5832 2.74433 18.494 2.7246 18.2902 2.74646L18.1327 2.76335L18.1611 2.8327C18.1847 2.89062 18.1794 2.91501 18.1287 2.9808C18.0465 3.08751 17.9395 3.13373 17.775 3.13373C17.6992 3.13373 17.6043 3.14903 17.5642 3.16774C17.524 3.18644 17.4243 3.20799 17.3425 3.21563C17.2608 3.22326 17.1737 3.23689 17.1489 3.24591C17.1102 3.26002 17.1059 3.24839 17.1184 3.16246C17.1375 3.03095 17.0433 2.93394 16.8966 2.93394C16.7062 2.93394 16.6184 3.10009 16.693 3.31926C16.7073 3.36144 16.7261 3.42796 16.7347 3.46708C16.7436 3.50767 16.8294 3.61538 16.9344 3.71792C17.0357 3.81676 17.1313 3.9196 17.147 3.94646C17.1628 3.97332 17.2147 4.01643 17.2624 4.04225L17.3493 4.0892L17.3378 3.99855C17.3252 3.89891 17.3475 3.88328 17.4018 3.95359C17.4212 3.97873 17.4706 4.01935 17.5115 4.04387C17.5758 4.08249 17.5858 4.08328 17.5858 4.04974C17.5858 4.02845 17.5989 3.9794 17.6149 3.94073L17.6441 3.87043L17.6947 3.96608C17.7226 4.01869 17.8131 4.13826 17.8959 4.23179C18.0566 4.41326 18.1545 4.61607 18.1039 4.66274C18.0835 4.68168 18.0281 4.68021 17.9132 4.6577C17.8242 4.64024 17.7141 4.63102 17.6686 4.63719C17.5756 4.64981 17.5682 4.63809 17.6255 4.5682C17.6858 4.49443 17.6762 4.48226 17.5576 4.48226C17.4204 4.48226 17.0796 4.41807 16.9488 4.36758C16.8217 4.31848 16.7923 4.3307 16.7549 4.44839C16.7381 4.50136 16.7072 4.59734 16.6864 4.66168L16.6484 4.77866L16.786 4.76573C16.8617 4.75862 16.959 4.74245 17.0023 4.7298C17.0456 4.71715 17.085 4.71043 17.0898 4.71487C17.0946 4.7193 17.0753 4.76501 17.0469 4.81644L16.9953 4.90995L17.0811 4.89289C17.1283 4.8835 17.1992 4.86054 17.2388 4.84186C17.3077 4.80935 17.3132 4.81171 17.3676 4.89679C17.4343 5.00141 17.4878 4.99711 17.4996 4.88616C17.5119 4.77146 17.5506 4.78843 17.6233 4.94042C17.6933 5.08657 17.766 5.13817 17.78 5.05153C17.7847 5.02277 17.8223 4.97594 17.8638 4.94747C17.9475 4.88989 18.0106 4.90717 18.0468 4.99757C18.0843 5.09116 18.0007 5.18761 17.7577 5.33135C17.2709 5.61929 16.9879 6.0131 16.9071 6.51505C16.8342 6.96779 17.0618 7.43562 17.5184 7.77164C17.7369 7.93244 18.084 8.10216 18.0619 8.0374C17.9683 7.76239 17.9713 7.23765 18.0672 7.14913C18.0815 7.13584 18.0766 7.19059 18.0562 7.2708C17.9801 7.56958 18.0131 7.80765 18.2081 8.36561C18.3845 8.87026 18.3601 9.08593 18.1105 9.22849C18.0303 9.27428 17.9787 9.28182 17.7631 9.27927C17.5292 9.2765 17.5037 9.28109 17.4287 9.33947C17.3559 9.39608 17.2615 9.58192 17.2615 9.66865C17.2615 9.71563 17.3149 9.70941 17.42 9.65022L17.4201 9.65012Z" fill="#FFBE29"/>
<path d="M21.2163 9.63998L21.3144 9.57846L21.381 9.63998C21.4682 9.72059 21.5704 9.71879 21.6543 9.63516C21.6909 9.59867 21.7237 9.57339 21.7273 9.57897C21.7309 9.58456 21.7472 9.61161 21.7636 9.63908C21.7843 9.67385 21.8269 9.69133 21.9039 9.69663C21.9966 9.70301 22.0215 9.69426 22.0583 9.64231L22.1022 9.58039L22.1988 9.64095C22.4632 9.80676 22.6041 9.6328 22.4859 9.2864C22.4259 9.11027 22.4589 9.01125 22.6526 8.78707C22.7342 8.69253 22.8011 8.59163 22.8012 8.56284C22.8012 8.51695 22.7861 8.5108 22.6774 8.5129C22.5734 8.51492 22.543 8.50402 22.4882 8.44522C22.3992 8.34959 22.4045 8.24006 22.504 8.11851L22.5835 8.02142L22.4424 7.928C22.3648 7.87662 22.2249 7.75507 22.1315 7.65788C21.9216 7.4396 21.7153 7.33609 21.4433 7.31262L21.2608 7.29688L21.2611 7.4316C21.2615 7.60503 21.3449 7.77187 21.5726 8.05448C21.8315 8.37579 21.8496 8.42554 21.8601 8.84552L21.8689 9.2007L21.794 9.27005C21.7263 9.33272 21.6958 9.34071 21.4773 9.353C21.2694 9.36471 21.2257 9.37518 21.1647 9.42792C21.0836 9.49798 21.0594 9.53609 21.0343 9.63284C21.0197 9.68922 21.0257 9.70152 21.0674 9.70152C21.0953 9.70152 21.1623 9.67383 21.2163 9.63999L21.2163 9.63998Z" fill="#FFBE29"/>
<path d="M15.6935 8.61317C15.6935 8.56827 15.7141 8.55628 15.8152 8.54227L15.9369 8.5254L15.8558 8.46229C15.7593 8.38731 15.7504 8.32874 15.8354 8.32861C15.92 8.32861 16.0634 8.24284 16.0852 8.17939C16.0953 8.1499 16.089 8.11049 16.0708 8.09026C16.0233 8.03742 15.9341 8.04539 15.9175 8.10394C15.8997 8.16689 15.8699 8.16706 15.8023 8.10457C15.7006 8.01058 15.6983 7.81604 15.7976 7.70275C15.8444 7.64937 15.8439 7.64586 15.7843 7.59074C15.7201 7.53145 15.6743 7.41409 15.7044 7.38623C15.714 7.37737 15.7647 7.38443 15.8171 7.40194C15.8915 7.4268 15.9209 7.42718 15.9516 7.40366C16.0444 7.33244 15.9438 7.24086 15.7949 7.26106C15.7349 7.26919 15.7102 7.26106 15.7016 7.23073C15.6951 7.20772 15.6426 7.17768 15.5836 7.16311C15.478 7.13708 15.4773 7.1374 15.4773 7.20835C15.4773 7.28609 15.4318 7.30076 15.3454 7.25088C15.2751 7.21035 15.207 7.24182 15.207 7.31479C15.207 7.38287 15.2772 7.41645 15.403 7.40854C15.4994 7.40248 15.503 7.47247 15.4114 7.57307L15.3455 7.64542L15.3977 7.71859C15.475 7.82694 15.4685 8.00689 15.3841 8.09627L15.3179 8.16634L15.2744 8.11015C15.2141 8.03206 15.1315 8.0373 15.1089 8.12064C15.094 8.17522 15.1063 8.20016 15.1763 8.258C15.2234 8.29686 15.2922 8.32866 15.3291 8.32866C15.4205 8.32866 15.4169 8.39878 15.3219 8.46961L15.2476 8.52503L15.3624 8.54242C15.4256 8.55198 15.4773 8.56997 15.4773 8.58239C15.4773 8.63002 15.5071 8.77457 15.5825 8.77818C15.6498 8.7814 15.6919 8.68145 15.6935 8.61317Z" fill="#FFBE29"/>
<path d="M17.1471 8.09012C17.2515 8.04998 17.4773 7.86339 17.4773 7.81729C17.4773 7.80279 17.415 7.73589 17.3388 7.66863C17.1784 7.52709 17.004 7.28871 16.9588 7.14934C16.9353 7.07667 16.8214 6.95226 16.5007 6.64878L16.0739 6.24493L15.9509 6.27533C15.8833 6.29205 15.8008 6.30613 15.7675 6.30663C15.7103 6.30748 15.7113 6.31069 15.7874 6.36818L15.8678 6.42884L15.9804 6.36785C16.0895 6.30874 16.0934 6.30837 16.1069 6.35595C16.1148 6.3838 16.0978 6.43206 16.0676 6.46752C16.0383 6.50189 16.0217 6.54087 16.0305 6.55416C16.0394 6.56744 16.0113 6.59521 15.9681 6.61587C15.8879 6.65416 15.8323 6.78022 15.8956 6.78022C15.9525 6.78022 16.0779 6.62918 16.0635 6.5781C16.0561 6.55194 16.0596 6.52503 16.0714 6.5183C16.1203 6.4904 16.1172 6.60898 16.0676 6.6673C16.0383 6.70167 16.0217 6.74066 16.0305 6.75394C16.0394 6.76722 16.0113 6.79499 15.9681 6.81565C15.8885 6.8537 15.8323 6.98 15.895 6.98C15.9564 6.98 16.0798 6.83567 16.0645 6.78168C16.0565 6.75343 16.0596 6.72482 16.0714 6.71809C16.1043 6.69929 16.1221 6.79291 16.0943 6.83877C16.0794 6.86334 16.0796 6.89688 16.0947 6.92348C16.122 6.97166 16.0943 7.0642 16.0439 7.09297C16.0223 7.1053 16.0369 7.12949 16.0893 7.16808C16.1651 7.22392 16.1666 7.22979 16.1666 7.47618C16.1666 7.6821 16.1751 7.73525 16.2139 7.77109C16.2574 7.81131 16.2611 7.81146 16.2611 7.77289C16.2611 7.73075 16.3369 7.67925 16.399 7.67925C16.4172 7.67925 16.5315 7.77374 16.6529 7.88924C16.775 8.00543 16.9028 8.1043 16.939 8.11059C16.9749 8.11685 17.0139 8.1235 17.0255 8.12537C17.0371 8.12725 17.0918 8.11138 17.1471 8.09013L17.1471 8.09012Z" fill="#FFBE29"/>
<path d="M15.8422 7.09287C15.8422 7.02649 15.7019 6.95563 15.534 6.93726C15.3985 6.92243 15.3963 6.92327 15.3963 6.98932C15.3963 7.044 15.4176 7.06551 15.5111 7.10525C15.6615 7.1691 15.8422 7.16235 15.8422 7.09287L15.8422 7.09287Z" fill="#FFBE29"/>
<path d="M15.996 7.08695C16.0644 7.02635 16.0969 6.95427 16.0557 6.95427C16.0083 6.95427 15.8826 7.06434 15.8826 7.10581C15.8826 7.17054 15.9059 7.16665 15.996 7.08695V7.08695Z" fill="#FFBE29"/>
<path d="M15.8506 6.89118C15.8564 6.85373 15.8326 6.82873 15.7615 6.79737C15.6079 6.72972 15.4244 6.69839 15.3802 6.73229C15.2988 6.79473 15.353 6.87856 15.4846 6.89364C15.5376 6.89971 15.6094 6.91548 15.6442 6.92867C15.7454 6.96699 15.8415 6.94952 15.8506 6.89118Z" fill="#FFBE29"/>
<path d="M15.8501 6.69079C15.8584 6.63736 15.8234 6.61824 15.5375 6.52007C15.3241 6.44679 15.2296 6.48135 15.2978 6.60776C15.3216 6.65179 15.3615 6.67191 15.4509 6.68497C15.5174 6.69469 15.6083 6.71369 15.6529 6.7272C15.772 6.76329 15.8409 6.75058 15.8501 6.69079L15.8501 6.69079Z" fill="#FFBE29"/>
<path d="M15.9934 6.50236C16.0366 6.4597 16.0718 6.40936 16.0718 6.39049C16.0718 6.32928 15.9015 6.43757 15.8798 6.51259C15.8538 6.60257 15.896 6.59877 15.9934 6.50236L15.9934 6.50236Z" fill="#FFBE29"/>
<path d="M15.8503 6.49085C15.8597 6.42999 15.756 6.37503 15.552 6.33279C15.4023 6.30179 15.3363 6.31937 15.3475 6.38723C15.3536 6.42427 15.4035 6.45134 15.5449 6.49439C15.7712 6.5633 15.8392 6.56251 15.8503 6.49085L15.8503 6.49085Z" fill="#FFBE29"/>
<path d="M16.0498 6.20633C16.3112 6.0928 16.3338 5.8065 16.0873 5.73133C15.985 5.70012 15.9197 5.71694 15.8805 5.78458C15.8505 5.83637 15.8705 5.93054 15.9116 5.93054C15.9254 5.93054 15.9368 5.94797 15.9368 5.96927C15.9368 6.06868 15.5377 6.11373 15.374 6.03278C15.3165 6.00435 15.2915 5.93054 15.3393 5.93054C15.3751 5.93054 15.3998 5.85532 15.3815 5.80213C15.3566 5.72965 15.2818 5.70454 15.1732 5.73224C14.9282 5.79476 14.935 6.07568 15.1845 6.19488C15.3891 6.29263 15.8375 6.29857 16.0498 6.20635L16.0498 6.20633Z" fill="#FFBE29"/>
<path d="M15.8871 5.98671C15.9023 5.97273 15.8957 5.95123 15.8703 5.93177C15.8147 5.88915 15.8177 5.82576 15.8787 5.7532C15.9244 5.69871 15.9302 5.61717 15.9459 4.79461C15.9731 3.37708 16.0811 2.31087 16.2235 2.0551C16.2802 1.95327 16.2722 1.95286 16.1257 2.05011C15.937 2.17539 15.7933 2.33852 15.666 2.57205C15.4257 3.01294 15.3422 3.60611 15.3422 4.87232C15.3422 5.59125 15.3472 5.68531 15.3892 5.7529C15.429 5.81709 15.4311 5.8408 15.4031 5.90936C15.385 5.9538 15.3767 5.99627 15.3848 6.00374C15.4385 6.05333 15.8294 6.04017 15.8871 5.98684V5.98671Z" fill="#FFBE29"/>
<path d="M18.0831 4.63485C18.0913 4.62261 18.0732 4.5608 18.0429 4.4975C17.9957 4.3988 17.9767 4.38241 17.9094 4.38241C17.6985 4.38241 17.3596 4.29048 17.0102 4.13853C16.8084 4.05078 16.7387 4.03062 16.7145 4.05298C16.6528 4.11003 16.7554 4.24543 16.9143 4.31661C17.0553 4.37975 17.4493 4.45733 17.6291 4.45733C17.7334 4.45733 17.7358 4.46192 17.6765 4.54562L17.6328 4.60717L17.7508 4.61013C17.8157 4.61175 17.9053 4.62166 17.9499 4.63214C18.0657 4.65938 18.0668 4.6594 18.0832 4.63486L18.0831 4.63485Z" fill="#FFBE29"/>
<path d="M19.3153 5.27397C19.3153 5.23733 19.205 5.13803 19.0932 5.07406C19.0055 5.02381 18.991 5.02228 18.9908 5.06326C18.9905 5.12548 18.9338 5.28179 18.9115 5.28179C18.899 5.28179 18.8804 5.25124 18.8703 5.21391C18.8601 5.17658 18.8176 5.10301 18.7757 5.05042L18.6996 4.9548L18.6404 5.04339C18.5851 5.12598 18.4894 5.20687 18.447 5.20687C18.4368 5.20687 18.4348 5.16337 18.4426 5.11021C18.4509 5.05245 18.4445 5.00664 18.4265 4.99636C18.4099 4.9869 18.3964 4.9902 18.3964 5.00369C18.3964 5.03481 18.2635 5.18189 18.2354 5.18189C18.2238 5.18189 18.2076 5.13975 18.1993 5.08824C18.1911 5.03673 18.1771 4.95526 18.1682 4.90719C18.1593 4.85911 18.1783 4.89172 18.2103 4.97963L18.2685 5.13948L18.3323 5.04207C18.3674 4.98849 18.3962 4.92994 18.3962 4.91196C18.3962 4.89398 18.4082 4.88601 18.4226 4.89425C18.437 4.9025 18.4571 4.9669 18.4672 5.03738L18.4856 5.16552L18.5559 5.09039C18.5945 5.04908 18.6397 4.99376 18.6564 4.96747C18.6862 4.92056 18.6879 4.9206 18.7471 4.96962C18.7803 4.99709 18.8314 5.0628 18.8606 5.11564C18.8898 5.16847 18.9175 5.20781 18.9223 5.20304C18.9271 5.19828 18.9378 5.14381 18.9461 5.082C18.9544 5.02019 18.9618 4.96733 18.9625 4.96453C18.9667 4.94921 19.1741 5.08075 19.2508 5.14735C19.3001 5.19016 19.347 5.21919 19.3549 5.21186C19.3628 5.20453 19.3693 5.14138 19.3693 5.07151C19.3693 4.96325 19.3575 4.93423 19.2897 4.87504C19.2116 4.80698 19.2095 4.8066 19.1806 4.85639C19.1432 4.921 19.0991 4.92193 19.0991 4.85811C19.0991 4.81153 18.9516 4.63248 18.9132 4.63248C18.9033 4.63248 18.8722 4.67181 18.8442 4.71989C18.8162 4.76796 18.786 4.80725 18.7772 4.80719C18.7394 4.80697 18.5315 4.58081 18.5316 4.53998C18.5316 4.50751 18.5456 4.51582 18.5821 4.57004C18.6098 4.61125 18.6651 4.67276 18.705 4.70674C18.7858 4.77554 18.8152 4.75881 18.8464 4.62623C18.8553 4.58846 18.8708 4.55756 18.8807 4.55756C18.9153 4.55756 19.0963 4.7451 19.1217 4.80729L19.1473 4.86973L19.1666 4.80105C19.1903 4.71707 19.2164 4.71395 19.2542 4.79058C19.27 4.82259 19.348 4.88915 19.4275 4.93848L19.572 5.02817L19.601 4.93796C19.617 4.88834 19.6381 4.85983 19.648 4.87459C19.6627 4.89662 19.6252 5.04611 19.5968 5.07827C19.5926 5.08309 19.5457 5.05647 19.4927 5.01912L19.3964 4.9512L19.396 5.07279C19.3957 5.13966 19.3883 5.21966 19.3793 5.25056C19.3618 5.31099 19.3153 5.32799 19.3153 5.27396L19.3153 5.27397Z" fill="black"/>
<path d="M18.5941 4.30419C18.4223 4.16425 18.3963 4.13222 18.4001 4.0659L18.4041 3.9953L18.4153 4.06349C18.4219 4.10331 18.4676 4.16297 18.5253 4.2069L18.624 4.28211L18.6847 4.21363C18.7181 4.17596 18.7458 4.1311 18.7464 4.11393C18.7478 4.06916 18.756 4.07292 18.8723 4.17139C18.9757 4.25887 18.9773 4.25929 18.9926 4.2026C19.0012 4.171 18.9982 4.1115 18.9859 4.07039C18.9521 3.95737 18.9587 3.94032 19.0099 4.00848C19.0354 4.04244 19.0764 4.09045 19.101 4.11516C19.1438 4.15819 19.1464 4.15766 19.1624 4.10268C19.1715 4.07109 19.1792 4.01328 19.1794 3.97421L19.1798 3.90318L19.273 4.00623C19.36 4.10249 19.368 4.10605 19.3946 4.06018C19.4102 4.03317 19.4232 3.9682 19.4234 3.91579C19.4237 3.84808 19.431 3.831 19.4487 3.85678C19.4781 3.89983 19.4577 4.01704 19.4033 4.11692L19.3642 4.1886L19.3129 4.11068C19.2474 4.01105 19.2255 4.01265 19.1835 4.12017C19.1437 4.22178 19.1178 4.22951 19.0791 4.15138C19.054 4.10082 19.0492 4.10702 19.0314 4.21324L19.0117 4.33128L18.8932 4.24154L18.7746 4.1518L18.7214 4.2109C18.6921 4.24341 18.6677 4.28405 18.6672 4.30122C18.6661 4.33843 18.6376 4.33959 18.5941 4.3042L18.5941 4.30419Z" fill="black"/>
<path d="M20.1223 3.78338C20.0598 3.72842 20.0167 3.67597 20.0266 3.66684C20.0365 3.65771 20.0476 3.6551 20.0513 3.66103C20.055 3.66697 20.1061 3.71941 20.1649 3.77757C20.3002 3.91149 20.2724 3.91529 20.1223 3.78338V3.78338Z" fill="black"/>
<path d="M18.0869 3.57835C18.03 3.50331 18.034 3.45359 18.1032 3.37225C18.1532 3.31347 18.1761 3.3055 18.2635 3.31633C18.3195 3.32327 18.4401 3.37159 18.5315 3.42369C18.637 3.48387 18.7461 3.52418 18.8306 3.53421C18.9038 3.54288 18.9637 3.54615 18.9637 3.54147C18.9637 3.5368 18.9333 3.48846 18.8962 3.43407C18.8079 3.3049 18.8109 3.29103 18.9105 3.36842C19.0126 3.44787 19.1348 3.4711 19.4079 3.463L19.5414 3.45904L19.464 3.38438C19.3557 3.27997 19.389 3.27061 19.5086 3.37185C19.6207 3.4668 19.6137 3.47348 19.3777 3.49647C19.2774 3.50623 19.1696 3.49915 19.0799 3.47691C18.9458 3.44363 18.9406 3.44414 18.966 3.488C18.9807 3.51328 19.0044 3.53396 19.0187 3.53396C19.033 3.53396 19.0448 3.54677 19.0448 3.56243C19.0448 3.61058 18.7551 3.56824 18.6167 3.49986C18.3005 3.34364 18.2607 3.33012 18.1854 3.35326C18.1435 3.36614 18.1016 3.40383 18.0872 3.4416C18.039 3.56759 18.2221 3.66554 18.2977 3.55415C18.3196 3.52187 18.3144 3.49979 18.276 3.46051C18.2233 3.4067 18.2282 3.39903 18.2994 3.42426C18.3499 3.44216 18.3567 3.56047 18.3097 3.60389C18.2559 3.65356 18.1332 3.6395 18.0869 3.57835L18.0869 3.57835Z" fill="black"/>
<path d="M19.3321 3.26725C19.2926 3.23071 19.3236 3.22176 19.5008 3.21854C19.7202 3.21455 19.8534 3.17889 20.0105 3.08209C20.1364 3.00453 20.1706 3.01979 20.051 3.10021C19.942 3.17358 19.772 3.22997 19.6078 3.24722C19.5283 3.25557 19.4377 3.26714 19.4064 3.27292C19.3752 3.27871 19.3417 3.27616 19.3321 3.26725L19.3321 3.26725Z" fill="black"/>
<path d="M25.3157 8.98691C25.3157 8.98691 25.448 9.26285 25.5941 9.37527C25.8107 9.54186 26.2547 9.52982 26.4431 9.72416C26.6689 9.95334 26.4256 10.2561 26.4277 10.2824L26.44 10.4423C26.44 10.4423 26.2878 10.4442 26.2237 10.4544C26.1273 10.4698 26.0897 10.5502 25.9102 10.5382C25.459 10.5082 25.4771 10.0917 25.4516 9.73579C25.4289 9.60025 25.3765 9.42354 25.3467 9.28805C25.3212 9.17187 25.3157 8.98691 25.3157 8.98691H25.3157Z" fill="#FFBE29" stroke="black" stroke-width="0.03141"/>
<path d="M25.315 3.01522C25.315 3.01522 25.4474 2.73893 25.5937 2.62636C25.8104 2.45956 26.2547 2.47161 26.4433 2.27702C26.6693 2.04756 26.4258 1.7444 26.4278 1.71809L26.4402 1.55798C26.4402 1.55798 26.2878 1.5561 26.2237 1.54584C26.1272 1.53043 26.0896 1.44996 25.91 1.46191C25.4584 1.49196 25.4766 1.909 25.451 2.26539C25.4284 2.40109 25.3759 2.57803 25.3461 2.71369C25.3205 2.83003 25.315 3.01522 25.315 3.01522L25.315 3.01522Z" fill="#FFBE29" stroke="black" stroke-width="0.03144"/>
<path d="M14.045 3.01546C14.045 3.01546 13.9126 2.73912 13.7663 2.62654C13.5496 2.45972 13.1052 2.47177 12.9166 2.27715C12.6906 2.04765 12.9341 1.74444 12.9321 1.71813L12.9197 1.55799C12.9197 1.55799 13.0721 1.55611 13.1363 1.54586C13.2327 1.53044 13.2704 1.44996 13.45 1.46191C13.9016 1.49197 13.8834 1.90907 13.909 2.26551C13.9316 2.40124 13.9841 2.5782 14.0139 2.71388C14.0395 2.83023 14.045 3.01546 14.045 3.01546L14.045 3.01546Z" fill="#FFBE29" stroke="black" stroke-width="0.03144"/>
</g>
<defs>
<filter id="filter0_d_60_5116" x="0" y="0" width="32" height="20" filterUnits="userSpaceOnUse" color-interpolation-filters="sRGB">
<feFlood flood-opacity="0" result="BackgroundImageFix"/>
<feColorMatrix in="SourceAlpha" type="matrix" values="0 0 0 0 0 0 0 0 0 0 0 0 0 0 0 0 0 0 127 0" result="hardAlpha"/>
<feOffset dy="4"/>
<feGaussianBlur stdDeviation="2"/>
<feComposite in2="hardAlpha" operator="out"/>
<feColorMatrix type="matrix" values="0 0 0 0 0 0 0 0 0 0 0 0 0 0 0 0 0 0 0.25 0"/>
<feBlend mode="normal" in2="BackgroundImageFix" result="effect1_dropShadow_60_5116"/>
<feBlend mode="normal" in="SourceGraphic" in2="effect1_dropShadow_60_5116" result="shape"/>
</filter>
</defs>
</svg>
